<?xml version="1.0" encoding="UTF-8"?>
<svg width="384px" height="384px" viewBox="0 0 384 384" version="1.1" xmlns="http://www.w3.org/2000/svg" xmlns:xlink="http://www.w3.org/1999/xlink">
    <title>Mark-dark-L</title>
    <defs>
        <polygon id="path-1" points="0 0 384 0 384 384 0 384"></polygon>
    </defs>
    <g id="Page-1" stroke="none" stroke-width="1" fill="none" fill-rule="evenodd">
        <g id="Mark-dark-L">
            <mask id="mask-2" fill="white">
                <use xlink:href="#path-1"></use>
            </mask>
            <g id="Path"></g>
            <g id="Group" mask="url(#mask-2)">
                <g transform="translate(24.000007, 18.000006)" id="Group-2">
                    <path d="M154.142993,142.901244 C165.734243,147.947244 177.278243,154.154994 188.483993,161.713494 C268.071743,215.396244 296.987243,301.283244 280.790243,325.296744 C280.276493,326.058744 279.686993,326.801994 279.026243,327.525744 C306.622493,312.353994 339.908243,236.290494 322.946993,149.029494 C304.628993,54.7935691 226.103243,-3.29018091 208.433993,0.144369088 C193.201493,3.10521909 153.161993,65.3992441 154.142993,142.901244 Z" id="Path" stroke="#8BE48B" stroke-width="12" fill-rule="nonzero"></path>
                    <path d="M158.033243,181.085994 C176.351243,275.321994 244.112243,335.498244 272.546243,329.971494 C274.650743,329.561994 276.820493,328.738494 279.026243,327.525744 C258.862493,349.591494 171.601493,352.970994 94.5397429,300.991494 C14.9519929,247.309494 -7.83195714,152.330994 2.23349286,137.408244 C10.8817429,124.586994 83.4097429,112.110744 154.142993,142.901244 C154.299743,155.300244 155.507243,168.088494 158.033243,181.085994 Z" id="Path" stroke="#8BE48B" stroke-width="12" fill-rule="nonzero"></path>
                    <path d="M158.033243,181.085244 C176.350493,275.321994 244.112243,335.498244 272.545493,329.970744 C274.650743,329.561994 276.820493,328.738494 279.026993,327.524994 C279.687743,326.801994 280.276493,326.058744 280.790243,325.296744 C296.987243,301.283244 268.071743,215.395494 188.483993,161.713494 C177.278243,154.154994 165.734243,147.946494 154.142993,142.901244 C154.299743,155.300244 155.506493,168.088494 158.033243,181.085244 Z" id="Path" stroke="#8BE48B" stroke-width="12" fill-rule="nonzero"></path>
                </g>
            </g>
        </g>
    </g>
</svg>